<?xml version="1.0" encoding="utf-8"?>
<!-- Generator: Adobe Illustrator 21.1.0, SVG Export Plug-In . SVG Version: 6.00 Build 0)  -->
<svg version="1.1" id="Layer_1" xmlns="http://www.w3.org/2000/svg" xmlns:xlink="http://www.w3.org/1999/xlink" x="0px" y="0px"
	 viewBox="0 0 200 200" style="enable-background:new 0 0 200 200;" xml:space="preserve">
<style type="text/css">
	.st0{fill:#DB8449;}
</style>
<path class="st0" d="M193.2,193.4L193.2,193.4c-3.6,3.6-9.5,3.6-13.1,0L6.7,20.2c-3.6-3.6-3.6-9.5,0-13.1l0,0
	c3.6-3.6,9.5-3.6,13.1,0l173.3,173.3C196.8,183.9,196.8,189.8,193.2,193.4z"/>
<path class="st0" d="M6.7,193.4L6.7,193.4c3.6,3.6,9.5,3.6,13.1,0L193.2,20.2c3.6-3.6,3.6-9.5,0-13.1l0,0c-3.6-3.6-9.5-3.6-13.1,0
	L6.7,180.3C3.1,183.9,3.1,189.8,6.7,193.4z"/>
</svg>
