<?xml version="1.0" encoding="utf-8"?>
<!-- Generator: Adobe Illustrator 21.1.0, SVG Export Plug-In . SVG Version: 6.00 Build 0)  -->
<svg version="1.1" id="Layer_1" xmlns="http://www.w3.org/2000/svg" xmlns:xlink="http://www.w3.org/1999/xlink" x="0px" y="0px"
	 viewBox="0 0 160 200" style="enable-background:new 0 0 160 200;" xml:space="preserve">
<style type="text/css">
	.st0{fill:#DB8449;}
	.st1{fill:url(#SVGID_1_);}
</style>
<path class="st0" d="M149.8,95.3c-3.7-8.5-8.8-18.9-15.5-30.7c-1,11.4-7.4,24.1-7.4,24.1s2.6-13.9,3.2-23.5c0.2-2.9,0.1-5.6-0.2-8
	c-1-1.6-2-3.2-3-4.9C107.8,22.2,74.5,0,74.5,0s-5.3,27.8-26.7,54.5c-12.3,15.4-22.5,15-33.9,37.7c-24.2,48.2,9.7,106.2,63.6,107.7
	c0.8,0,1.6,0,2.3,0c15.7,0,30.3-4.5,42.5-12.4C153,168,164.3,128.7,149.8,95.3z"/>
<radialGradient id="SVGID_1_" cx="82.1017" cy="98.9305" r="85.74" fx="83.1247" fy="136.394" gradientUnits="userSpaceOnUse">
	<stop  offset="0.3655" style="stop-color:#E5AF5A"/>
	<stop  offset="0.5554" style="stop-color:#E3A757"/>
	<stop  offset="0.8442" style="stop-color:#DE924F"/>
	<stop  offset="1" style="stop-color:#DB8449"/>
</radialGradient>
<path class="st1" d="M136.5,113.4c-0.6-7.5,1.1-12.8-2.1-23.5c-0.6,6.6-10.1,13.6-14.9,16.8c-1.2,0.8-2.8-0.1-2.8-1.5
	c0.1-3.8,0.3-10.1,0.6-14.9c0.1-2.3,0-4.3-0.2-6.2c-1.3-4-2.4-6.4-3.1-7.7c-7.3-13.8-38-36.7-38-36.7s-4.1,21.6-20.7,42.3
	c-9.6,11.9-17.4,11.6-26.3,29.2c-18.8,37.4,7.5,82.3,49.3,83.5c0.6,0,1.2,0,1.8,0c12.1,0,23.5-3.5,33-9.6
	C136.8,169.9,138.6,141.2,136.5,113.4z"/>
</svg>
